<svg width="26" height="28" viewBox="0 0 26 28" fill="none" xmlns="http://www.w3.org/2000/svg">
<path d="M3.89182 15.9103C3.89182 15.9103 8.93666 8.34302 12.0897 4.55939C14.0635 2.1902 17.7651 1.24871 20.9181 2.66757C24.0712 4.08643 25.3324 7.08181 24.0712 9.60423C22.81 12.1266 17.7651 21.5857 17.7651 21.5857" stroke="#C7A17A" stroke-width="2.5" stroke-linecap="round" stroke-linejoin="round"/>
<path d="M17.7651 20.4431C17.7651 22.4307 16.6578 24.2078 14.9186 25.3857C13.5527 26.3115 11.7971 25.9161 9.88256 25.9161C7.864 25.9161 6.022 26.249 4.62773 25.2319C3.01464 24.0558 2 22.3462 2 20.4431C2 16.4223 5.52887 14.0185 9.88256 14.0185C14.2363 14.0185 17.7651 16.8947 17.7651 20.4431Z" stroke="#C7A17A" stroke-width="2.5" stroke-linecap="round" stroke-linejoin="round"/>
<path d="M7.67544 10.8654C7.67544 10.8654 9.88255 10.2348 12.7203 10.8654M10.8285 6.4512C10.8285 6.4512 13.0356 5.50529 15.2427 6.4512M12.7203 20.4613C12.7203 21.0894 12.3217 21.65 11.6955 22.0227C11.2037 22.3147 10.5718 22.1898 9.88255 22.1898C9.1561 22.1898 8.4927 22.2951 7.99074 21.9735C7.41058 21.6021 7.04483 21.0623 7.04483 20.4613C7.04483 19.1919 8.3155 18.4327 9.88255 18.4327C11.4496 18.4327 12.7203 19.3408 12.7203 20.4613Z" stroke="#C7A17A" stroke-width="2.5" stroke-linecap="round" stroke-linejoin="round"/>
</svg>
