<svg width="24" height="24" viewBox="0 0 24 24" fill="none" xmlns="http://www.w3.org/2000/svg">
<path d="M19.3333 0H2.66667C1.2 0 0 1.2 0 2.66667V10.28C0 15.3867 3.93333 19.8533 9.04 20C14.32 20.16 18.6667 15.92 18.6667 10.6667V9.33333H19.3333C21.9067 9.33333 24 7.24 24 4.66667C24 2.09333 21.9067 0 19.3333 0ZM16 2.66667V6.66667H2.66667V2.66667H16ZM19.3333 6.66667H18.6667V2.66667H19.3333C20.44 2.66667 21.3333 3.56 21.3333 4.66667C21.3333 5.77333 20.44 6.66667 19.3333 6.66667ZM0 21.3333H21.3333V24H0V21.3333Z" fill="#C7A17A"/>
</svg>
