<svg width="28" height="28" viewBox="0 0 28 28" fill="none" xmlns="http://www.w3.org/2000/svg">
<path d="M2 2H26V23C26 23.7956 25.6839 24.5587 25.1213 25.1213C24.5587 25.6839 23.7956 26 23 26H5C4.20435 26 3.44129 25.6839 2.87868 25.1213C2.31607 24.5587 2 23.7956 2 23V2Z" stroke="#C7A17A" stroke-width="2.5" stroke-linecap="round" stroke-linejoin="round"/>
<path d="M14 19.9985H14.015V20.0135H14V19.9985Z" stroke="#C7A17A" stroke-width="2.5" stroke-linejoin="round"/>
<path d="M11.879 7.37756C12.464 6.79256 13.229 6.50006 13.994 6.49856C14.389 6.49711 14.7805 6.57405 15.1456 6.72494C15.5107 6.87582 15.8422 7.09764 16.121 7.37756C16.706 7.96256 17 8.73056 17 9.49856C17.0007 9.89261 16.9234 10.2829 16.7726 10.6469C16.6217 11.011 16.4003 11.3415 16.121 11.6196C15.8421 11.8993 15.5106 12.1211 15.1455 12.2719C14.7804 12.4228 14.389 12.4998 13.994 12.4986L14 13.9986" stroke="#C7A17A" stroke-width="2.5" stroke-linecap="round" stroke-linejoin="round"/>
</svg>
